{
	"asset":{
		"generator":"Khronos glTF Blender I/O v4.3.47",
		"version":"2.0"
	},
	"scene":0,
	"scenes":[
		{
			"name":"Scene",
			"nodes":[
				2
			]
		}
	],
	"nodes":[
		{
			"mesh":0,
			"name":"Glass",
			"translation":[
				0.9718950986862183,
				1.7344145774841309,
				-6.999829292297363
			]
		},
		{
			"children":[
				0
			],
			"name":"Cap",
			"translation":[
				0.04955435171723366,
				-0.012929439544677734,
				-6.143884658813477
			]
		},
		{
			"children":[
				1
			],
			"name":"Multipurpose_Electric_Kettle_Cum_Cooker",
			"rotation":[
				0.7071068286895752,
				0,
				0,
				0.7071068286895752
			],
			"scale":[
				0.04999999701976776,
				0.04999999701976776,
				0.04999999701976776
			]
		}
	],
	"materials":[
		{
			"doubleSided":true,
			"name":"M_Glass",
			"pbrMetallicRoughness":{
				"metallicFactor":0,
				"roughnessFactor":0.5527864098548889
			}
		}
	],
	"meshes":[
		{
			"name":"Mesh.011",
			"primitives":[
				{
					"attributes":{
						"POSITION":0,
						"NORMAL":1,
						"TEXCOORD_0":2
					},
					"indices":3,
					"material":0
				},
				{
					"attributes":{
						"POSITION":4,
						"NORMAL":5,
						"TEXCOORD_0":6
					},
					"indices":7,
					"material":0
				}
			]
		}
	],
	"accessors":[
		{
			"bufferView":0,
			"componentType":5126,
			"count":1128,
			"max":[
				9.437324523925781,
				8.683765411376953,
				-11.354515075683594
			],
			"min":[
				-11.48011589050293,
				-12.126745223999023,
				-12.695392608642578
			],
			"type":"VEC3"
		},
		{
			"bufferView":1,
			"componentType":5126,
			"count":1128,
			"type":"VEC3"
		},
		{
			"bufferView":2,
			"componentType":5126,
			"count":1128,
			"type":"VEC2"
		},
		{
			"bufferView":3,
			"componentType":5123,
			"count":2736,
			"type":"SCALAR"
		},
		{
			"bufferView":4,
			"componentType":5126,
			"count":31661,
			"max":[
				17.152687072753906,
				35.05070114135742,
				13.143714904785156
			],
			"min":[
				-19.651714324951172,
				-20.130428314208984,
				-14.832286834716797
			],
			"type":"VEC3"
		},
		{
			"bufferView":5,
			"componentType":5126,
			"count":31661,
			"type":"VEC3"
		},
		{
			"bufferView":6,
			"componentType":5126,
			"count":31661,
			"type":"VEC2"
		},
		{
			"bufferView":7,
			"componentType":5123,
			"count":97890,
			"type":"SCALAR"
		}
	],
	"bufferViews":[
		{
			"buffer":0,
			"byteLength":13536,
			"byteOffset":0,
			"target":34962
		},
		{
			"buffer":0,
			"byteLength":13536,
			"byteOffset":13536,
			"target":34962
		},
		{
			"buffer":0,
			"byteLength":9024,
			"byteOffset":27072,
			"target":34962
		},
		{
			"buffer":0,
			"byteLength":5472,
			"byteOffset":36096,
			"target":34963
		},
		{
			"buffer":0,
			"byteLength":379932,
			"byteOffset":41568,
			"target":34962
		},
		{
			"buffer":0,
			"byteLength":379932,
			"byteOffset":421500,
			"target":34962
		},
		{
			"buffer":0,
			"byteLength":253288,
			"byteOffset":801432,
			"target":34962
		},
		{
			"buffer":0,
			"byteLength":195780,
			"byteOffset":1054720,
			"target":34963
		}
	],
	"buffers":[
		{
			"byteLength":1250500,
			"uri":"Combine.bin"
		}
	]
}
