{
	"asset":{
		"generator":"Khronos glTF Blender I/O v4.2.57",
		"version":"2.0"
	},
	"scene":0,
	"scenes":[
		{
			"name":"Scene",
			"nodes":[
				3
			]
		}
	],
	"nodes":[
		{
			"name":"group1"
		},
		{
			"mesh":0,
			"name":"polySurface1",
			"translation":[
				0,
				0,
				-4.44230318069458
			]
		},
		{
			"children":[
				0,
				1
			],
			"name":"Coocker_body"
		},
		{
			"children":[
				2
			],
			"name":"Multipurpose_Electric_Kettle_Cum_Cooker",
			"rotation":[
				0.7071068286895752,
				0,
				0,
				0.7071068286895752
			],
			"scale":[
				0.04999999701976776,
				0.04999999701976776,
				0.04999999701976776
			]
		}
	],
	"materials":[
		{
			"doubleSided":true,
			"name":"M_Multipurpose_Electric_Kettle_Cum_Cooker",
			"normalTexture":{
				"index":0
			},
			"pbrMetallicRoughness":{
				"baseColorTexture":{
					"index":1
				},
				"metallicRoughnessTexture":{
					"index":2
				}
			}
		},
		{
			"alphaMode":"BLEND",
			"doubleSided":true,
			"name":"M_Glass",
			"normalTexture":{
				"index":3
			},
			"pbrMetallicRoughness":{
				"baseColorTexture":{
					"index":4
				},
				"metallicRoughnessTexture":{
					"index":5
				}
			}
		},
		{
			"doubleSided":true,
			"name":"Material.005",
			"pbrMetallicRoughness":{
				"baseColorFactor":[
					0.001318498281762004,
					0.001318498281762004,
					0.001318498281762004,
					1
				],
				"metallicFactor":0,
				"roughnessFactor":0.5
			}
		},
		{
			"doubleSided":true,
			"name":"Material.001",
			"pbrMetallicRoughness":{
				"baseColorFactor":[
					0.6455010175704956,
					0.02462450973689556,
					0,
					1
				],
				"metallicFactor":0,
				"roughnessFactor":0.5
			}
		},
		{
			"doubleSided":true,
			"name":"Material.004",
			"pbrMetallicRoughness":{
				"baseColorFactor":[
					0,
					0,
					0,
					1
				],
				"metallicFactor":0,
				"roughnessFactor":0.5
			}
		},
		{
			"doubleSided":true,
			"name":"Material.002",
			"pbrMetallicRoughness":{
				"baseColorFactor":[
					0.806072473526001,
					0.05322068929672241,
					0,
					1
				],
				"metallicFactor":0,
				"roughnessFactor":0.5
			}
		},
		{
			"doubleSided":true,
			"name":"Material.003",
			"pbrMetallicRoughness":{
				"baseColorFactor":[
					0.8006223440170288,
					0.0762176364660263,
					0.01113297138363123,
					1
				],
				"metallicFactor":0,
				"roughnessFactor":0.5
			}
		}
	],
	"meshes":[
		{
			"name":"Mesh",
			"primitives":[
				{
					"attributes":{
						"POSITION":0,
						"NORMAL":1,
						"TEXCOORD_0":2,
						"TEXCOORD_1":3
					},
					"indices":4,
					"material":0
				},
				{
					"attributes":{
						"POSITION":5,
						"NORMAL":6,
						"TEXCOORD_0":7,
						"TEXCOORD_1":8
					},
					"indices":9,
					"material":1
				},
				{
					"attributes":{
						"POSITION":10,
						"NORMAL":11,
						"TEXCOORD_0":12,
						"TEXCOORD_1":13
					},
					"indices":14,
					"material":2
				},
				{
					"attributes":{
						"POSITION":15,
						"NORMAL":16,
						"TEXCOORD_0":17,
						"TEXCOORD_1":18
					},
					"indices":19,
					"material":3
				},
				{
					"attributes":{
						"POSITION":20,
						"NORMAL":21,
						"TEXCOORD_0":22,
						"TEXCOORD_1":23
					},
					"indices":24,
					"material":4
				},
				{
					"attributes":{
						"POSITION":25,
						"NORMAL":26,
						"TEXCOORD_0":27,
						"TEXCOORD_1":28
					},
					"indices":29,
					"material":5
				},
				{
					"attributes":{
						"POSITION":30,
						"NORMAL":31,
						"TEXCOORD_0":32,
						"TEXCOORD_1":33
					},
					"indices":34,
					"material":6
				}
			]
		}
	],
	"textures":[
		{
			"sampler":0,
			"source":0
		},
		{
			"sampler":0,
			"source":1
		},
		{
			"sampler":0,
			"source":2
		},
		{
			"sampler":0,
			"source":3
		},
		{
			"sampler":0,
			"source":4
		},
		{
			"sampler":0,
			"source":5
		}
	],
	"images":[
		{
			"mimeType":"image/png",
			"name":"Multipurpose Electric Kettle Cum Cooker_02_M_Multipurpose_Electric_Kettle_Cum_Cooker_Normal",
			"uri":"Multipurpose%20Electric%20Kettle%20Cum%20Cooker_02_M_Multipurpose_Electric_Kettle_Cum_Cooker_Normal.png"
		},
		{
			"mimeType":"image/png",
			"name":"Multipurpose Electric Kettle Cum Cooker_02_M_Multipurpose_Electric_Kettle_Cum_Cooker_BaseColor",
			"uri":"Multipurpose%20Electric%20Kettle%20Cum%20Cooker_02_M_Multipurpose_Electric_Kettle_Cum_Cooker_BaseColor.png"
		},
		{
			"mimeType":"image/png",
			"name":"Multipurpose Electric Kettle Cum Cooker_02_M_Multipurpose_E-Multipurpose Electric Kettle Cum Cooker_02_M_Multipurpose_E",
			"uri":"Multipurpose%20Electric%20Kettle%20Cum%20Cooker_02_M_Multipurpose_E-Multipurpose%20Electric%20Kettle%20Cum%20Cooker_02_M_Multipurpose_E.png"
		},
		{
			"mimeType":"image/png",
			"name":"Multipurpose Electric Kettle Cum Cooker_02_M_glass_Normal",
			"uri":"Multipurpose%20Electric%20Kettle%20Cum%20Cooker_02_M_glass_Normal.png"
		},
		{
			"mimeType":"image/png",
			"name":"Multipurpose Electric Kettle Cum Cooker_02_M_glass_BaseColor-Multipurpose Electric Kettle Cum Cooker_02_M_glass_Opacity",
			"uri":"Multipurpose%20Electric%20Kettle%20Cum%20Cooker_02_M_glass_BaseColor-Multipurpose%20Electric%20Kettle%20Cum%20Cooker_02_M_glass_Opacity.png"
		},
		{
			"mimeType":"image/png",
			"name":"Multipurpose Electric Kettle Cum Cooker_02_M_glass_Metallic-Multipurpose Electric Kettle Cum Cooker_02_M_glass_Roughness",
			"uri":"Multipurpose%20Electric%20Kettle%20Cum%20Cooker_02_M_glass_Metallic-Multipurpose%20Electric%20Kettle%20Cum%20Cooker_02_M_glass_Roughness.png"
		}
	],
	"accessors":[
		{
			"bufferView":0,
			"componentType":5126,
			"count":31661,
			"max":[
				18.174137115478516,
				36.772186279296875,
				4.833061218261719
			],
			"min":[
				-18.630264282226562,
				-18.40894317626953,
				-27.97599983215332
			],
			"type":"VEC3"
		},
		{
			"bufferView":1,
			"componentType":5126,
			"count":31661,
			"type":"VEC3"
		},
		{
			"bufferView":2,
			"componentType":5126,
			"count":31661,
			"type":"VEC2"
		},
		{
			"bufferView":3,
			"componentType":5126,
			"count":31661,
			"type":"VEC2"
		},
		{
			"bufferView":4,
			"componentType":5123,
			"count":97890,
			"type":"SCALAR"
		},
		{
			"bufferView":5,
			"componentType":5126,
			"count":1128,
			"max":[
				10.45877456665039,
				10.405250549316406,
				-24.498228073120117
			],
			"min":[
				-10.45866584777832,
				-10.40526008605957,
				-25.8391056060791
			],
			"type":"VEC3"
		},
		{
			"bufferView":6,
			"componentType":5126,
			"count":1128,
			"type":"VEC3"
		},
		{
			"bufferView":7,
			"componentType":5126,
			"count":1128,
			"type":"VEC2"
		},
		{
			"bufferView":8,
			"componentType":5126,
			"count":1128,
			"type":"VEC2"
		},
		{
			"bufferView":9,
			"componentType":5123,
			"count":2736,
			"type":"SCALAR"
		},
		{
			"bufferView":10,
			"componentType":5126,
			"count":120,
			"max":[
				-4.066773891448975,
				0.20000293850898743,
				0.04575969651341438
			],
			"min":[
				-17.67445945739746,
				-1.513412939857517e-06,
				-18.68195152282715
			],
			"type":"VEC3"
		},
		{
			"bufferView":11,
			"componentType":5126,
			"count":120,
			"type":"VEC3"
		},
		{
			"bufferView":12,
			"componentType":5126,
			"count":120,
			"type":"VEC2"
		},
		{
			"bufferView":13,
			"componentType":5126,
			"count":120,
			"type":"VEC2"
		},
		{
			"bufferView":14,
			"componentType":5123,
			"count":216,
			"type":"SCALAR"
		},
		{
			"bufferView":15,
			"componentType":5126,
			"count":5040,
			"max":[
				-14.78372573852539,
				0.05838910490274429,
				-9.013189315795898
			],
			"min":[
				-19.695466995239258,
				-0.05290542542934418,
				-10.402389526367188
			],
			"type":"VEC3"
		},
		{
			"bufferView":16,
			"componentType":5126,
			"count":5040,
			"type":"VEC3"
		},
		{
			"bufferView":17,
			"componentType":5126,
			"count":5040,
			"type":"VEC2"
		},
		{
			"bufferView":18,
			"componentType":5126,
			"count":5040,
			"type":"VEC2"
		},
		{
			"bufferView":19,
			"componentType":5123,
			"count":15084,
			"type":"SCALAR"
		},
		{
			"bufferView":20,
			"componentType":5126,
			"count":120,
			"max":[
				10.250153541564941,
				1.9032992124557495,
				4.024718761444092
			],
			"min":[
				-10.027961730957031,
				1.5032975673675537,
				-2.1285336017608643
			],
			"type":"VEC3"
		},
		{
			"bufferView":21,
			"componentType":5126,
			"count":120,
			"type":"VEC3"
		},
		{
			"bufferView":22,
			"componentType":5126,
			"count":120,
			"type":"VEC2"
		},
		{
			"bufferView":23,
			"componentType":5126,
			"count":120,
			"type":"VEC2"
		},
		{
			"bufferView":24,
			"componentType":5123,
			"count":216,
			"type":"SCALAR"
		},
		{
			"bufferView":25,
			"componentType":5126,
			"count":3725,
			"max":[
				3.0093836784362793,
				1.721932053565979,
				4.609097957611084
			],
			"min":[
				-2.6345067024230957,
				1.6591471433639526,
				2.987117052078247
			],
			"type":"VEC3"
		},
		{
			"bufferView":26,
			"componentType":5126,
			"count":3725,
			"type":"VEC3"
		},
		{
			"bufferView":27,
			"componentType":5126,
			"count":3725,
			"type":"VEC2"
		},
		{
			"bufferView":28,
			"componentType":5126,
			"count":3725,
			"type":"VEC2"
		},
		{
			"bufferView":29,
			"componentType":5123,
			"count":11028,
			"type":"SCALAR"
		},
		{
			"bufferView":30,
			"componentType":5126,
			"count":277,
			"max":[
				4.03065299987793,
				12.609173774719238,
				-10.675142288208008
			],
			"min":[
				-3.291977643966675,
				12.355839729309082,
				-14.717439651489258
			],
			"type":"VEC3"
		},
		{
			"bufferView":31,
			"componentType":5126,
			"count":277,
			"type":"VEC3"
		},
		{
			"bufferView":32,
			"componentType":5126,
			"count":277,
			"type":"VEC2"
		},
		{
			"bufferView":33,
			"componentType":5126,
			"count":277,
			"type":"VEC2"
		},
		{
			"bufferView":34,
			"componentType":5123,
			"count":744,
			"type":"SCALAR"
		}
	],
	"bufferViews":[
		{
			"buffer":0,
			"byteLength":379932,
			"byteOffset":0,
			"target":34962
		},
		{
			"buffer":0,
			"byteLength":379932,
			"byteOffset":379932,
			"target":34962
		},
		{
			"buffer":0,
			"byteLength":253288,
			"byteOffset":759864,
			"target":34962
		},
		{
			"buffer":0,
			"byteLength":253288,
			"byteOffset":1013152,
			"target":34962
		},
		{
			"buffer":0,
			"byteLength":195780,
			"byteOffset":1266440,
			"target":34963
		},
		{
			"buffer":0,
			"byteLength":13536,
			"byteOffset":1462220,
			"target":34962
		},
		{
			"buffer":0,
			"byteLength":13536,
			"byteOffset":1475756,
			"target":34962
		},
		{
			"buffer":0,
			"byteLength":9024,
			"byteOffset":1489292,
			"target":34962
		},
		{
			"buffer":0,
			"byteLength":9024,
			"byteOffset":1498316,
			"target":34962
		},
		{
			"buffer":0,
			"byteLength":5472,
			"byteOffset":1507340,
			"target":34963
		},
		{
			"buffer":0,
			"byteLength":1440,
			"byteOffset":1512812,
			"target":34962
		},
		{
			"buffer":0,
			"byteLength":1440,
			"byteOffset":1514252,
			"target":34962
		},
		{
			"buffer":0,
			"byteLength":960,
			"byteOffset":1515692,
			"target":34962
		},
		{
			"buffer":0,
			"byteLength":960,
			"byteOffset":1516652,
			"target":34962
		},
		{
			"buffer":0,
			"byteLength":432,
			"byteOffset":1517612,
			"target":34963
		},
		{
			"buffer":0,
			"byteLength":60480,
			"byteOffset":1518044,
			"target":34962
		},
		{
			"buffer":0,
			"byteLength":60480,
			"byteOffset":1578524,
			"target":34962
		},
		{
			"buffer":0,
			"byteLength":40320,
			"byteOffset":1639004,
			"target":34962
		},
		{
			"buffer":0,
			"byteLength":40320,
			"byteOffset":1679324,
			"target":34962
		},
		{
			"buffer":0,
			"byteLength":30168,
			"byteOffset":1719644,
			"target":34963
		},
		{
			"buffer":0,
			"byteLength":1440,
			"byteOffset":1749812,
			"target":34962
		},
		{
			"buffer":0,
			"byteLength":1440,
			"byteOffset":1751252,
			"target":34962
		},
		{
			"buffer":0,
			"byteLength":960,
			"byteOffset":1752692,
			"target":34962
		},
		{
			"buffer":0,
			"byteLength":960,
			"byteOffset":1753652,
			"target":34962
		},
		{
			"buffer":0,
			"byteLength":432,
			"byteOffset":1754612,
			"target":34963
		},
		{
			"buffer":0,
			"byteLength":44700,
			"byteOffset":1755044,
			"target":34962
		},
		{
			"buffer":0,
			"byteLength":44700,
			"byteOffset":1799744,
			"target":34962
		},
		{
			"buffer":0,
			"byteLength":29800,
			"byteOffset":1844444,
			"target":34962
		},
		{
			"buffer":0,
			"byteLength":29800,
			"byteOffset":1874244,
			"target":34962
		},
		{
			"buffer":0,
			"byteLength":22056,
			"byteOffset":1904044,
			"target":34963
		},
		{
			"buffer":0,
			"byteLength":3324,
			"byteOffset":1926100,
			"target":34962
		},
		{
			"buffer":0,
			"byteLength":3324,
			"byteOffset":1929424,
			"target":34962
		},
		{
			"buffer":0,
			"byteLength":2216,
			"byteOffset":1932748,
			"target":34962
		},
		{
			"buffer":0,
			"byteLength":2216,
			"byteOffset":1934964,
			"target":34962
		},
		{
			"buffer":0,
			"byteLength":1488,
			"byteOffset":1937180,
			"target":34963
		}
	],
	"samplers":[
		{
			"magFilter":9729,
			"minFilter":9987
		}
	],
	"buffers":[
		{
			"byteLength":1938668,
			"uri":"Insta_cuppa.bin"
		}
	]
}
