{
	"asset":{
		"generator":"Khronos glTF Blender I/O v4.2.57",
		"version":"2.0"
	},
	"scene":0,
	"scenes":[
		{
			"name":"Scene",
			"nodes":[
				18
			]
		}
	],
	"nodes":[
		{
			"mesh":0,
			"name":"Leveler_body"
		},
		{
			"mesh":1,
			"name":"Leveler_bubble"
		},
		{
			"children":[
				0,
				1
			],
			"name":"Leveler"
		},
		{
			"mesh":2,
			"name":"Magnet"
		},
		{
			"mesh":3,
			"name":"Pen_body"
		},
		{
			"mesh":4,
			"name":"Pen_body_clip"
		},
		{
			"mesh":5,
			"name":"Pen_bottom"
		},
		{
			"mesh":6,
			"name":"Pen_grip"
		},
		{
			"mesh":7,
			"name":"Pen_inside_parts_1"
		},
		{
			"mesh":8,
			"name":"Pen_inside_parts_2"
		},
		{
			"mesh":9,
			"name":"Pen_inside_parts_3"
		},
		{
			"children":[
				8,
				9,
				10
			],
			"name":"Pen_inside_parts"
		},
		{
			"mesh":10,
			"name":"Pen_top_cap"
		},
		{
			"mesh":11,
			"name":"Pen_top_cap_rubber"
		},
		{
			"mesh":12,
			"name":"nib"
		},
		{
			"mesh":13,
			"name":"Rifile.001"
		},
		{
			"children":[
				14,
				15
			],
			"name":"Rifile"
		},
		{
			"mesh":14,
			"name":"Screw_driver"
		},
		{
			"children":[
				2,
				3,
				4,
				5,
				6,
				7,
				11,
				12,
				13,
				16,
				17
			],
			"name":"Pen",
			"rotation":[
				0.7071068286895752,
				0,
				0,
				0.7071068286895752
			],
			"scale":[
				0.009999999776482582,
				0.009999999776482582,
				0.009999999776482582
			]
		}
	],
	"materials":[
		{
			"alphaMode":"BLEND",
			"doubleSided":true,
			"name":"M_leveller",
			"normalTexture":{
				"index":0
			},
			"pbrMetallicRoughness":{
				"baseColorFactor":[
					1,
					1,
					1,
					0.6272005438804626
				],
				"baseColorTexture":{
					"index":1
				},
				"metallicRoughnessTexture":{
					"index":2
				}
			}
		},
		{
			"doubleSided":true,
			"name":"M_Pen",
			"normalTexture":{
				"index":3
			},
			"pbrMetallicRoughness":{
				"baseColorTexture":{
					"index":4
				},
				"metallicRoughnessTexture":{
					"index":5
				}
			}
		}
	],
	"meshes":[
		{
			"name":"Mesh.008",
			"primitives":[
				{
					"attributes":{
						"POSITION":0,
						"NORMAL":1,
						"TEXCOORD_0":2
					},
					"indices":3,
					"material":0
				}
			]
		},
		{
			"name":"Mesh.009",
			"primitives":[
				{
					"attributes":{
						"POSITION":4,
						"NORMAL":5,
						"TEXCOORD_0":6
					},
					"indices":7,
					"material":0
				}
			]
		},
		{
			"name":"Mesh.005",
			"primitives":[
				{
					"attributes":{
						"POSITION":8,
						"NORMAL":9,
						"TEXCOORD_0":10
					},
					"indices":11,
					"material":1
				}
			]
		},
		{
			"name":"Mesh",
			"primitives":[
				{
					"attributes":{
						"POSITION":12,
						"NORMAL":13,
						"TEXCOORD_0":14
					},
					"indices":15,
					"material":1
				}
			]
		},
		{
			"name":"Mesh.001",
			"primitives":[
				{
					"attributes":{
						"POSITION":16,
						"NORMAL":17,
						"TEXCOORD_0":18
					},
					"indices":19,
					"material":1
				}
			]
		},
		{
			"name":"Mesh.007",
			"primitives":[
				{
					"attributes":{
						"POSITION":20,
						"NORMAL":21,
						"TEXCOORD_0":22
					},
					"indices":23,
					"material":1
				}
			]
		},
		{
			"name":"Mesh.004",
			"primitives":[
				{
					"attributes":{
						"POSITION":24,
						"NORMAL":25,
						"TEXCOORD_0":26
					},
					"indices":27,
					"material":1
				}
			]
		},
		{
			"name":"Mesh.010",
			"primitives":[
				{
					"attributes":{
						"POSITION":28,
						"NORMAL":29,
						"TEXCOORD_0":30
					},
					"indices":31,
					"material":1
				}
			]
		},
		{
			"name":"Mesh.011",
			"primitives":[
				{
					"attributes":{
						"POSITION":32,
						"NORMAL":33,
						"TEXCOORD_0":34
					},
					"indices":35,
					"material":1
				}
			]
		},
		{
			"name":"Mesh.012",
			"primitives":[
				{
					"attributes":{
						"POSITION":36,
						"NORMAL":37,
						"TEXCOORD_0":38
					},
					"indices":39,
					"material":1
				}
			]
		},
		{
			"name":"Mesh.002",
			"primitives":[
				{
					"attributes":{
						"POSITION":40,
						"NORMAL":41,
						"TEXCOORD_0":42
					},
					"indices":43,
					"material":1
				}
			]
		},
		{
			"name":"Mesh.003",
			"primitives":[
				{
					"attributes":{
						"POSITION":44,
						"NORMAL":45,
						"TEXCOORD_0":46
					},
					"indices":47,
					"material":1
				}
			]
		},
		{
			"name":"Mesh.014",
			"primitives":[
				{
					"attributes":{
						"POSITION":48,
						"NORMAL":49,
						"TEXCOORD_0":50
					},
					"indices":51,
					"material":1
				}
			]
		},
		{
			"name":"Mesh.013",
			"primitives":[
				{
					"attributes":{
						"POSITION":52,
						"NORMAL":53,
						"TEXCOORD_0":54
					},
					"indices":55,
					"material":1
				}
			]
		},
		{
			"name":"Mesh.006",
			"primitives":[
				{
					"attributes":{
						"POSITION":56,
						"NORMAL":57,
						"TEXCOORD_0":58,
						"TEXCOORD_1":59
					},
					"indices":60,
					"material":1
				}
			]
		}
	],
	"textures":[
		{
			"sampler":0,
			"source":0
		},
		{
			"sampler":0,
			"source":1
		},
		{
			"sampler":0,
			"source":2
		},
		{
			"sampler":0,
			"source":3
		},
		{
			"sampler":0,
			"source":4
		},
		{
			"sampler":0,
			"source":5
		}
	],
	"images":[
		{
			"mimeType":"image/png",
			"name":"Pen_body_V05_T_leveller_Normal",
			"uri":"Pen_body_V05_T_leveller_Normal.png"
		},
		{
			"mimeType":"image/png",
			"name":"Pen_body_V05_T_leveller_BaseColor",
			"uri":"Pen_body_V05_T_leveller_BaseColor.png"
		},
		{
			"mimeType":"image/png",
			"name":"Pen_body_V05_T_leveller_Metallic-Pen_body_V05_T_leveller_Roughness",
			"uri":"Pen_body_V05_T_leveller_Metallic-Pen_body_V05_T_leveller_Roughness.png"
		},
		{
			"mimeType":"image/png",
			"name":"Pen_body_V05_T_Pen_Normal",
			"uri":"Pen_body_V05_T_Pen_Normal.png"
		},
		{
			"mimeType":"image/png",
			"name":"Pen_body_V05_T_Pen_BaseColor",
			"uri":"Pen_body_V05_T_Pen_BaseColor.png"
		},
		{
			"mimeType":"image/png",
			"name":"Pen_body_V05_T_Pen_Metallic-Pen_body_V05_T_Pen_Roughness",
			"uri":"Pen_body_V05_T_Pen_Metallic-Pen_body_V05_T_Pen_Roughness.png"
		}
	],
	"accessors":[
		{
			"bufferView":0,
			"componentType":5126,
			"count":276,
			"max":[
				22.25732421875,
				20.87412452697754,
				-464.0896911621094
			],
			"min":[
				-20.877655029296875,
				-22.7044734954834,
				-556.351318359375
			],
			"type":"VEC3"
		},
		{
			"bufferView":1,
			"componentType":5126,
			"count":276,
			"type":"VEC3"
		},
		{
			"bufferView":2,
			"componentType":5126,
			"count":276,
			"type":"VEC2"
		},
		{
			"bufferView":3,
			"componentType":5123,
			"count":792,
			"type":"SCALAR"
		},
		{
			"bufferView":4,
			"componentType":5126,
			"count":169,
			"max":[
				-0.47288212180137634,
				14.85195541381836,
				-497.53204345703125
			],
			"min":[
				-18.73825454711914,
				-3.413411855697632,
				-519.6817626953125
			],
			"type":"VEC3"
		},
		{
			"bufferView":5,
			"componentType":5126,
			"count":169,
			"type":"VEC3"
		},
		{
			"bufferView":6,
			"componentType":5126,
			"count":169,
			"type":"VEC2"
		},
		{
			"bufferView":7,
			"componentType":5123,
			"count":792,
			"type":"SCALAR"
		},
		{
			"bufferView":8,
			"componentType":5126,
			"count":230,
			"max":[
				6.596210479736328,
				5.051933765411377,
				-558.2903442382812
			],
			"min":[
				-5.216542720794678,
				-6.882292747497559,
				-561.363525390625
			],
			"type":"VEC3"
		},
		{
			"bufferView":9,
			"componentType":5126,
			"count":230,
			"type":"VEC3"
		},
		{
			"bufferView":10,
			"componentType":5126,
			"count":230,
			"type":"VEC2"
		},
		{
			"bufferView":11,
			"componentType":5123,
			"count":792,
			"type":"SCALAR"
		},
		{
			"bufferView":12,
			"componentType":5126,
			"count":2090,
			"max":[
				27.180383682250977,
				32.02534103393555,
				-267.4043273925781
			],
			"min":[
				-25.800716400146484,
				-24.507232666015625,
				-715.1162109375
			],
			"type":"VEC3"
		},
		{
			"bufferView":13,
			"componentType":5126,
			"count":2090,
			"type":"VEC3"
		},
		{
			"bufferView":14,
			"componentType":5126,
			"count":2090,
			"type":"VEC2"
		},
		{
			"bufferView":15,
			"componentType":5123,
			"count":7452,
			"type":"SCALAR"
		},
		{
			"bufferView":16,
			"componentType":5126,
			"count":642,
			"max":[
				11.254534721374512,
				43.672393798828125,
				-477.8133544921875
			],
			"min":[
				-9.913647651672363,
				25.083168029785156,
				-684.3176879882812
			],
			"type":"VEC3"
		},
		{
			"bufferView":17,
			"componentType":5126,
			"count":642,
			"type":"VEC3"
		},
		{
			"bufferView":18,
			"componentType":5126,
			"count":642,
			"type":"VEC2"
		},
		{
			"bufferView":19,
			"componentType":5123,
			"count":2064,
			"type":"SCALAR"
		},
		{
			"bufferView":20,
			"componentType":5126,
			"count":4033,
			"max":[
				24.508926391601562,
				22.574201583862305,
				-30.549152374267578
			],
			"min":[
				-23.14269256591797,
				-24.817304611206055,
				-142.76486206054688
			],
			"type":"VEC3"
		},
		{
			"bufferView":21,
			"componentType":5126,
			"count":4033,
			"type":"VEC3"
		},
		{
			"bufferView":22,
			"componentType":5126,
			"count":4033,
			"type":"VEC2"
		},
		{
			"bufferView":23,
			"componentType":5123,
			"count":14616,
			"type":"SCALAR"
		},
		{
			"bufferView":24,
			"componentType":5126,
			"count":924,
			"max":[
				23.824134826660156,
				22.0472354888916,
				-115.94316864013672
			],
			"min":[
				-22.5667724609375,
				-24.090543746948242,
				-268.25909423828125
			],
			"type":"VEC3"
		},
		{
			"bufferView":25,
			"componentType":5126,
			"count":924,
			"type":"VEC3"
		},
		{
			"bufferView":26,
			"componentType":5126,
			"count":924,
			"type":"VEC2"
		},
		{
			"bufferView":27,
			"componentType":5123,
			"count":3456,
			"type":"SCALAR"
		},
		{
			"bufferView":28,
			"componentType":5126,
			"count":1155,
			"max":[
				22.178064346313477,
				20.525920867919922,
				-225.67984008789062
			],
			"min":[
				-21.00763702392578,
				-22.424068450927734,
				-381.8449401855469
			],
			"type":"VEC3"
		},
		{
			"bufferView":29,
			"componentType":5126,
			"count":1155,
			"type":"VEC3"
		},
		{
			"bufferView":30,
			"componentType":5126,
			"count":1155,
			"type":"VEC2"
		},
		{
			"bufferView":31,
			"componentType":5123,
			"count":4032,
			"type":"SCALAR"
		},
		{
			"bufferView":32,
			"componentType":5126,
			"count":1023,
			"max":[
				15.471217155456543,
				14.188199043273926,
				-353.65692138671875
			],
			"min":[
				-14.553377151489258,
				-15.669038772583008,
				-450.6750793457031
			],
			"type":"VEC3"
		},
		{
			"bufferView":33,
			"componentType":5126,
			"count":1023,
			"type":"VEC3"
		},
		{
			"bufferView":34,
			"componentType":5126,
			"count":1023,
			"type":"VEC2"
		},
		{
			"bufferView":35,
			"componentType":5123,
			"count":3864,
			"type":"SCALAR"
		},
		{
			"bufferView":36,
			"componentType":5126,
			"count":1098,
			"max":[
				22.148296356201172,
				20.4990234375,
				-273.059814453125
			],
			"min":[
				-20.981298446655273,
				-22.395153045654297,
				-388.1098937988281
			],
			"type":"VEC3"
		},
		{
			"bufferView":37,
			"componentType":5126,
			"count":1098,
			"type":"VEC3"
		},
		{
			"bufferView":38,
			"componentType":5126,
			"count":1098,
			"type":"VEC2"
		},
		{
			"bufferView":39,
			"componentType":5123,
			"count":4608,
			"type":"SCALAR"
		},
		{
			"bufferView":40,
			"componentType":5126,
			"count":1459,
			"max":[
				23.394886016845703,
				21.875864028930664,
				-694.565185546875
			],
			"min":[
				-21.9471435546875,
				-23.93242835998535,
				-775.7902221679688
			],
			"type":"VEC3"
		},
		{
			"bufferView":41,
			"componentType":5126,
			"count":1459,
			"type":"VEC3"
		},
		{
			"bufferView":42,
			"componentType":5126,
			"count":1459,
			"type":"VEC2"
		},
		{
			"bufferView":43,
			"componentType":5123,
			"count":5586,
			"type":"SCALAR"
		},
		{
			"bufferView":44,
			"componentType":5126,
			"count":506,
			"max":[
				17.156539916992188,
				15.57516860961914,
				-768.6275024414062
			],
			"min":[
				-15.709623336791992,
				-17.628971099853516,
				-800.91796875
			],
			"type":"VEC3"
		},
		{
			"bufferView":45,
			"componentType":5126,
			"count":506,
			"type":"VEC3"
		},
		{
			"bufferView":46,
			"componentType":5126,
			"count":506,
			"type":"VEC2"
		},
		{
			"bufferView":47,
			"componentType":5123,
			"count":2376,
			"type":"SCALAR"
		},
		{
			"bufferView":48,
			"componentType":5126,
			"count":1324,
			"max":[
				4.695550441741943,
				4.364050388336182,
				-0.0426749661564827
			],
			"min":[
				-4.445657730102539,
				-4.727395534515381,
				-33.08285140991211
			],
			"type":"VEC3"
		},
		{
			"bufferView":49,
			"componentType":5126,
			"count":1324,
			"type":"VEC3"
		},
		{
			"bufferView":50,
			"componentType":5126,
			"count":1324,
			"type":"VEC2"
		},
		{
			"bufferView":51,
			"componentType":5123,
			"count":6552,
			"type":"SCALAR"
		},
		{
			"bufferView":52,
			"componentType":5126,
			"count":396,
			"max":[
				5.115079402923584,
				4.7524895668029785,
				-30.532501220703125
			],
			"min":[
				-4.842865943908691,
				-5.152364253997803,
				-432.8109130859375
			],
			"type":"VEC3"
		},
		{
			"bufferView":53,
			"componentType":5126,
			"count":396,
			"type":"VEC3"
		},
		{
			"bufferView":54,
			"componentType":5126,
			"count":396,
			"type":"VEC2"
		},
		{
			"bufferView":55,
			"componentType":5123,
			"count":1152,
			"type":"SCALAR"
		},
		{
			"bufferView":56,
			"componentType":5126,
			"count":2645,
			"max":[
				10.50289535522461,
				9.298332214355469,
				-611.1132202148438
			],
			"min":[
				-9.092842102050781,
				-11.128692626953125,
				-766.9281616210938
			],
			"type":"VEC3"
		},
		{
			"bufferView":57,
			"componentType":5126,
			"count":2645,
			"type":"VEC3"
		},
		{
			"bufferView":58,
			"componentType":5126,
			"count":2645,
			"type":"VEC2"
		},
		{
			"bufferView":59,
			"componentType":5126,
			"count":2645,
			"type":"VEC2"
		},
		{
			"bufferView":60,
			"componentType":5123,
			"count":8820,
			"type":"SCALAR"
		}
	],
	"bufferViews":[
		{
			"buffer":0,
			"byteLength":3312,
			"byteOffset":0,
			"target":34962
		},
		{
			"buffer":0,
			"byteLength":3312,
			"byteOffset":3312,
			"target":34962
		},
		{
			"buffer":0,
			"byteLength":2208,
			"byteOffset":6624,
			"target":34962
		},
		{
			"buffer":0,
			"byteLength":1584,
			"byteOffset":8832,
			"target":34963
		},
		{
			"buffer":0,
			"byteLength":2028,
			"byteOffset":10416,
			"target":34962
		},
		{
			"buffer":0,
			"byteLength":2028,
			"byteOffset":12444,
			"target":34962
		},
		{
			"buffer":0,
			"byteLength":1352,
			"byteOffset":14472,
			"target":34962
		},
		{
			"buffer":0,
			"byteLength":1584,
			"byteOffset":15824,
			"target":34963
		},
		{
			"buffer":0,
			"byteLength":2760,
			"byteOffset":17408,
			"target":34962
		},
		{
			"buffer":0,
			"byteLength":2760,
			"byteOffset":20168,
			"target":34962
		},
		{
			"buffer":0,
			"byteLength":1840,
			"byteOffset":22928,
			"target":34962
		},
		{
			"buffer":0,
			"byteLength":1584,
			"byteOffset":24768,
			"target":34963
		},
		{
			"buffer":0,
			"byteLength":25080,
			"byteOffset":26352,
			"target":34962
		},
		{
			"buffer":0,
			"byteLength":25080,
			"byteOffset":51432,
			"target":34962
		},
		{
			"buffer":0,
			"byteLength":16720,
			"byteOffset":76512,
			"target":34962
		},
		{
			"buffer":0,
			"byteLength":14904,
			"byteOffset":93232,
			"target":34963
		},
		{
			"buffer":0,
			"byteLength":7704,
			"byteOffset":108136,
			"target":34962
		},
		{
			"buffer":0,
			"byteLength":7704,
			"byteOffset":115840,
			"target":34962
		},
		{
			"buffer":0,
			"byteLength":5136,
			"byteOffset":123544,
			"target":34962
		},
		{
			"buffer":0,
			"byteLength":4128,
			"byteOffset":128680,
			"target":34963
		},
		{
			"buffer":0,
			"byteLength":48396,
			"byteOffset":132808,
			"target":34962
		},
		{
			"buffer":0,
			"byteLength":48396,
			"byteOffset":181204,
			"target":34962
		},
		{
			"buffer":0,
			"byteLength":32264,
			"byteOffset":229600,
			"target":34962
		},
		{
			"buffer":0,
			"byteLength":29232,
			"byteOffset":261864,
			"target":34963
		},
		{
			"buffer":0,
			"byteLength":11088,
			"byteOffset":291096,
			"target":34962
		},
		{
			"buffer":0,
			"byteLength":11088,
			"byteOffset":302184,
			"target":34962
		},
		{
			"buffer":0,
			"byteLength":7392,
			"byteOffset":313272,
			"target":34962
		},
		{
			"buffer":0,
			"byteLength":6912,
			"byteOffset":320664,
			"target":34963
		},
		{
			"buffer":0,
			"byteLength":13860,
			"byteOffset":327576,
			"target":34962
		},
		{
			"buffer":0,
			"byteLength":13860,
			"byteOffset":341436,
			"target":34962
		},
		{
			"buffer":0,
			"byteLength":9240,
			"byteOffset":355296,
			"target":34962
		},
		{
			"buffer":0,
			"byteLength":8064,
			"byteOffset":364536,
			"target":34963
		},
		{
			"buffer":0,
			"byteLength":12276,
			"byteOffset":372600,
			"target":34962
		},
		{
			"buffer":0,
			"byteLength":12276,
			"byteOffset":384876,
			"target":34962
		},
		{
			"buffer":0,
			"byteLength":8184,
			"byteOffset":397152,
			"target":34962
		},
		{
			"buffer":0,
			"byteLength":7728,
			"byteOffset":405336,
			"target":34963
		},
		{
			"buffer":0,
			"byteLength":13176,
			"byteOffset":413064,
			"target":34962
		},
		{
			"buffer":0,
			"byteLength":13176,
			"byteOffset":426240,
			"target":34962
		},
		{
			"buffer":0,
			"byteLength":8784,
			"byteOffset":439416,
			"target":34962
		},
		{
			"buffer":0,
			"byteLength":9216,
			"byteOffset":448200,
			"target":34963
		},
		{
			"buffer":0,
			"byteLength":17508,
			"byteOffset":457416,
			"target":34962
		},
		{
			"buffer":0,
			"byteLength":17508,
			"byteOffset":474924,
			"target":34962
		},
		{
			"buffer":0,
			"byteLength":11672,
			"byteOffset":492432,
			"target":34962
		},
		{
			"buffer":0,
			"byteLength":11172,
			"byteOffset":504104,
			"target":34963
		},
		{
			"buffer":0,
			"byteLength":6072,
			"byteOffset":515276,
			"target":34962
		},
		{
			"buffer":0,
			"byteLength":6072,
			"byteOffset":521348,
			"target":34962
		},
		{
			"buffer":0,
			"byteLength":4048,
			"byteOffset":527420,
			"target":34962
		},
		{
			"buffer":0,
			"byteLength":4752,
			"byteOffset":531468,
			"target":34963
		},
		{
			"buffer":0,
			"byteLength":15888,
			"byteOffset":536220,
			"target":34962
		},
		{
			"buffer":0,
			"byteLength":15888,
			"byteOffset":552108,
			"target":34962
		},
		{
			"buffer":0,
			"byteLength":10592,
			"byteOffset":567996,
			"target":34962
		},
		{
			"buffer":0,
			"byteLength":13104,
			"byteOffset":578588,
			"target":34963
		},
		{
			"buffer":0,
			"byteLength":4752,
			"byteOffset":591692,
			"target":34962
		},
		{
			"buffer":0,
			"byteLength":4752,
			"byteOffset":596444,
			"target":34962
		},
		{
			"buffer":0,
			"byteLength":3168,
			"byteOffset":601196,
			"target":34962
		},
		{
			"buffer":0,
			"byteLength":2304,
			"byteOffset":604364,
			"target":34963
		},
		{
			"buffer":0,
			"byteLength":31740,
			"byteOffset":606668,
			"target":34962
		},
		{
			"buffer":0,
			"byteLength":31740,
			"byteOffset":638408,
			"target":34962
		},
		{
			"buffer":0,
			"byteLength":21160,
			"byteOffset":670148,
			"target":34962
		},
		{
			"buffer":0,
			"byteLength":21160,
			"byteOffset":691308,
			"target":34962
		},
		{
			"buffer":0,
			"byteLength":17640,
			"byteOffset":712468,
			"target":34963
		}
	],
	"samplers":[
		{
			"magFilter":9729,
			"minFilter":9987
		}
	],
	"buffers":[
		{
			"byteLength":730108,
			"uri":"Pen_body.bin"
		}
	]
}
